<?xml version="1.0" encoding="UTF-8" standalone="no"?>
<!-- Generated by IcoMoon.io -->

<svg
   xmlns:dc="http://purl.org/dc/elements/1.1/"
   xmlns:cc="http://creativecommons.org/ns#"
   xmlns:rdf="http://www.w3.org/1999/02/22-rdf-syntax-ns#"
   xmlns:svg="http://www.w3.org/2000/svg"
   xmlns="http://www.w3.org/2000/svg"
   xmlns:sodipodi="http://sodipodi.sourceforge.net/DTD/sodipodi-0.dtd"
   xmlns:inkscape="http://www.inkscape.org/namespaces/inkscape"
   version="1.1"
   width="32"
   height="32"
   viewBox="0 0 32 32"
   id="svg2"
   inkscape:version="0.91 r13725"
   sodipodi:docname="heart.svg">
  <metadata
     id="metadata10">
    <rdf:RDF>
      <cc:Work
         rdf:about="">
        <dc:format>image/svg+xml</dc:format>
        <dc:type
           rdf:resource="http://purl.org/dc/dcmitype/StillImage" />
        <dc:title></dc:title>
      </cc:Work>
    </rdf:RDF>
  </metadata>
  <defs
     id="defs8">
    <filter
       style="color-interpolation-filters:sRGB;"
       inkscape:label="Blur"
       id="filter4190">
      <feGaussianBlur
         stdDeviation="2 2"
         result="blur"
         id="feGaussianBlur4192" />
    </filter>
  </defs>
  <sodipodi:namedview
     pagecolor="#ffffff"
     bordercolor="#666666"
     borderopacity="1"
     objecttolerance="10"
     gridtolerance="10"
     guidetolerance="10"
     inkscape:pageopacity="0"
     inkscape:pageshadow="2"
     inkscape:window-width="1920"
     inkscape:window-height="1017"
     id="namedview6"
     showgrid="false"
     inkscape:zoom="14.75"
     inkscape:cx="2.6225695"
     inkscape:cy="14.480381"
     inkscape:window-x="-8"
     inkscape:window-y="-8"
     inkscape:window-maximized="1"
     inkscape:current-layer="svg2" />
  <rect
     style="fill:#000000;fill-opacity:1;stroke:none;stroke-width:5.30000019;stroke-miterlimit:4;stroke-dasharray:none;stroke-opacity:1"
     id="rect4138"
     width="38.033897"
     height="36"
     x="-2.3050847"
     y="-0.94915205"
     inkscape:export-xdpi="90"
     inkscape:export-ydpi="90" />
  <g
     id="g4194"
     inkscape:export-xdpi="304.74847"
     inkscape:export-ydpi="304.74847">
    <path
       style="fill:#ffffff;fill-opacity:1"
       inkscape:connector-curvature="0"
       id="path4"
       d="m 22.311864,4.5112712 c -2.793,0 -5.197322,2.2722712 -6.311033,4.6458644 -1.114543,-2.3735932 -3.518865,-4.6458644 -6.3126954,-4.6458644 -3.8510678,0 -6.9762712,3.1260339 -6.9762712,6.9771018 0,7.834186 7.9031186,9.888034 13.2889666,17.633356 5.091016,-7.697153 13.287305,-10.049153 13.287305,-17.633356 0,-3.8510679 -3.125204,-6.9771018 -6.976272,-6.9771018 z" />
    <path
       d="m 22.311864,4.5112712 c -2.793,0 -5.197322,2.2722712 -6.311033,4.6458644 -1.114543,-2.3735932 -3.518865,-4.6458644 -6.3126954,-4.6458644 -3.8510678,0 -6.9762712,3.1260339 -6.9762712,6.9771018 0,7.834186 7.9031186,9.888034 13.2889666,17.633356 5.091016,-7.697153 13.287305,-10.049153 13.287305,-17.633356 0,-3.8510679 -3.125204,-6.9771018 -6.976272,-6.9771018 z"
       id="path4140"
       inkscape:connector-curvature="0"
       style="fill:#ffffff;fill-opacity:1;filter:url(#filter4190)"
       inkscape:export-xdpi="304.74847"
       inkscape:export-ydpi="304.74847" />
  </g>
</svg>
